<svg width="95" height="96" viewBox="0 0 95 96" fill="none" xmlns="http://www.w3.org/2000/svg">
<g id="Group 2685">
<path id="XMLID_6_" d="M0 31.6747L47.512 0L95 31.6747L38.6065 69.2703L28.6901 62.6755L74.2285 32.3486L46.5252 13.8637L33.6483 22.4322L43.5407 29.0271L19.7846 44.8645L0 31.6747Z" fill="#3653FE"/>
<path id="XMLID_5_" d="M95 63.3491L47.488 94.9997L0 63.3491L56.4175 25.7534L66.3099 32.3483L20.7715 62.6751L48.4989 81.1601L61.3517 72.5675L51.4593 65.9726L75.2154 50.1593L95 63.3491Z" fill="#3653FE"/>
<path id="XMLID_4_" d="M95 13.2138L85.1077 19.8087L75.2153 13.2138L95 0V13.2138Z" fill="#3653FE"/>
<path id="XMLID_3_" d="M0 81.8102L9.89232 75.2153L19.7846 81.8102L0 95.024V81.8102Z" fill="#3653FE"/>
</g>
</svg>
